<?xml version="1.0" encoding="utf-8"?>
<!-- Generator: Adobe Illustrator 16.0.0, SVG Export Plug-In . SVG Version: 6.00 Build 0)  -->
<!DOCTYPE svg PUBLIC "-//W3C//DTD SVG 1.1//EN" "http://www.w3.org/Graphics/SVG/1.1/DTD/svg11.dtd">
<svg version="1.1" id="Layer_1" xmlns="http://www.w3.org/2000/svg" xmlns:xlink="http://www.w3.org/1999/xlink" x="0px" y="0px"
	 width="437.5px" height="159.5px" viewBox="0 0 437.5 159.5" enable-background="new 0 0 437.5 159.5" xml:space="preserve">
<g>
	<g>
		<path fill="#282828" d="M416.459,31.474c0-1.559-1.275-2.834-2.835-2.834h-6.072c-1.56,0-2.835-1.275-2.835-2.834v-15.72
			c0-1.559-1.275-2.834-2.835-2.834H8.307c-1.559,0-2.834,1.275-2.834,2.834v139.33c0,1.559,1.275,2.834,2.834,2.834h393.575
			c1.56,0,2.835-1.275,2.835-2.834v-15.72c0-1.559,1.275-2.834,2.835-2.834h6.072c1.56,0,2.835-1.275,2.835-2.834v-20.331
			c0-1.559,1.275-2.834,2.835-2.834h10.676c1.56,0,2.835-1.275,2.835-2.834V57.474c0-1.559-1.275-2.834-2.835-2.834h-10.676
			c-1.56,0-2.835-1.275-2.835-2.834V31.474z"/>
	</g>
</g>
<g>
	<linearGradient id="SVGID_1_" gradientUnits="userSpaceOnUse" x1="35.2871" y1="21.5464" x2="114.792" y2="201.8082">
		<stop  offset="0.0056" style="stop-color:#BA7924"/>
		<stop  offset="0.0639" style="stop-color:#C28330"/>
		<stop  offset="0.1791" style="stop-color:#D89F52"/>
		<stop  offset="0.2445" style="stop-color:#E7B26B"/>
		<stop  offset="0.2751" style="stop-color:#E1AB63"/>
		<stop  offset="0.4625" style="stop-color:#C1873A"/>
		<stop  offset="0.5553" style="stop-color:#B57B2D"/>
		<stop  offset="0.602" style="stop-color:#BA8032"/>
		<stop  offset="0.6743" style="stop-color:#C78E42"/>
		<stop  offset="0.7626" style="stop-color:#DFA860"/>
		<stop  offset="0.7895" style="stop-color:#E7B26B"/>
		<stop  offset="1" style="stop-color:#AB7126"/>
	</linearGradient>
	<path fill="url(#SVGID_1_)" d="M105.391,139.108c0,3.118-2.551,5.669-5.669,5.669H22.194c-3.118,0-5.669-2.551-5.669-5.669V20.392
		c0-3.118,2.551-5.669,5.669-5.669h77.528c3.118,0,5.669,2.551,5.669,5.669V139.108z"/>
</g>
<g>
	<linearGradient id="SVGID_2_" gradientUnits="userSpaceOnUse" x1="118.0137" y1="-8.7402" x2="197.5197" y2="171.5241">
		<stop  offset="0.0056" style="stop-color:#BA7924"/>
		<stop  offset="0.0639" style="stop-color:#C28330"/>
		<stop  offset="0.1791" style="stop-color:#D89F52"/>
		<stop  offset="0.2445" style="stop-color:#E7B26B"/>
		<stop  offset="0.2751" style="stop-color:#E1AB63"/>
		<stop  offset="0.4625" style="stop-color:#C1873A"/>
		<stop  offset="0.5553" style="stop-color:#B57B2D"/>
		<stop  offset="0.602" style="stop-color:#BA8032"/>
		<stop  offset="0.6743" style="stop-color:#C78E42"/>
		<stop  offset="0.7626" style="stop-color:#DFA860"/>
		<stop  offset="0.7895" style="stop-color:#E7B26B"/>
		<stop  offset="1" style="stop-color:#AB7126"/>
	</linearGradient>
	<path fill="url(#SVGID_2_)" d="M201.476,139.108c0,3.118-2.551,5.669-5.669,5.669h-77.527c-3.118,0-5.669-2.551-5.669-5.669V20.392
		c0-3.118,2.551-5.669,5.669-5.669h77.527c3.118,0,5.669,2.551,5.669,5.669V139.108z"/>
</g>
<g>
	<linearGradient id="SVGID_3_" gradientUnits="userSpaceOnUse" x1="199.9648" y1="-38.7432" x2="279.4709" y2="141.5212">
		<stop  offset="0.0056" style="stop-color:#BA7924"/>
		<stop  offset="0.0639" style="stop-color:#C28330"/>
		<stop  offset="0.1791" style="stop-color:#D89F52"/>
		<stop  offset="0.2445" style="stop-color:#E7B26B"/>
		<stop  offset="0.2751" style="stop-color:#E1AB63"/>
		<stop  offset="0.4625" style="stop-color:#C1873A"/>
		<stop  offset="0.5553" style="stop-color:#B57B2D"/>
		<stop  offset="0.602" style="stop-color:#BA8032"/>
		<stop  offset="0.6743" style="stop-color:#C78E42"/>
		<stop  offset="0.7626" style="stop-color:#DFA860"/>
		<stop  offset="0.7895" style="stop-color:#E7B26B"/>
		<stop  offset="1" style="stop-color:#AB7126"/>
	</linearGradient>
	<path fill="url(#SVGID_3_)" d="M296.659,139.108c0,3.118-2.551,5.669-5.669,5.669h-77.527c-3.118,0-5.669-2.551-5.669-5.669V20.392
		c0-3.118,2.551-5.669,5.669-5.669h77.527c3.118,0,5.669,2.551,5.669,5.669V139.108z"/>
</g>
</svg>
