<?xml version="1.0" encoding="utf-8"?>
<!-- Generator: Adobe Illustrator 16.0.0, SVG Export Plug-In . SVG Version: 6.00 Build 0)  -->
<!DOCTYPE svg PUBLIC "-//W3C//DTD SVG 1.1//EN" "http://www.w3.org/Graphics/SVG/1.1/DTD/svg11.dtd">
<svg version="1.1" xmlns="http://www.w3.org/2000/svg" xmlns:xlink="http://www.w3.org/1999/xlink" x="0px" y="0px" width="437.5px"
	 height="159.5px" viewBox="0 0 437.5 159.5" style="enable-background:new 0 0 437.5 159.5;" xml:space="preserve">
<g id="Layer_1">
	<g>
		<path style="fill:none;stroke:#282828;stroke-width:7.0866;stroke-miterlimit:10;" d="M406.328,142.328
			c0,5.457-4.465,9.921-9.921,9.921H17.005c-5.457,0-9.921-4.464-9.921-9.921V17.172c0-5.457,4.464-9.921,9.921-9.921h379.402
			c5.456,0,9.921,4.464,9.921,9.921V142.328z"/>
	</g>
	<g>
		<path style="fill:#282828;" d="M434.416,57.474c0-1.559-1.275-2.834-2.835-2.834h-10.676c-1.56,0-2.835-1.275-2.835-2.834V31.474
			c0-1.559-1.275-2.834-2.835-2.834h-7.454c-1.56,0-2.835,1.275-2.835,2.834v96.553c0,1.559,1.275,2.834,2.835,2.834h7.454
			c1.56,0,2.835-1.275,2.835-2.834v-20.331c0-1.559,1.275-2.834,2.835-2.834h10.676c1.56,0,2.835-1.275,2.835-2.834V57.474z"/>
	</g>
	<g>
		<linearGradient id="SVGID_1_" gradientUnits="userSpaceOnUse" x1="37.1152" y1="23.4238" x2="114.0559" y2="197.8717">
			<stop  offset="0.0056" style="stop-color:#BA6900"/>
			<stop  offset="0.0558" style="stop-color:#C17511"/>
			<stop  offset="0.155" style="stop-color:#D4933E"/>
			<stop  offset="0.2445" style="stop-color:#E7B26B"/>
			<stop  offset="0.3453" style="stop-color:#D59744"/>
			<stop  offset="0.4857" style="stop-color:#BE7513"/>
			<stop  offset="0.5553" style="stop-color:#B56800"/>
			<stop  offset="0.5924" style="stop-color:#B96D08"/>
			<stop  offset="0.6497" style="stop-color:#C37C1E"/>
			<stop  offset="0.7196" style="stop-color:#D39541"/>
			<stop  offset="0.7895" style="stop-color:#E7B26B"/>
			<stop  offset="0.9704" style="stop-color:#B46C0F"/>
			<stop  offset="1" style="stop-color:#AB6000"/>
		</linearGradient>
		<path style="fill:url(#SVGID_1_);" d="M106.391,136.443c0,3.118-2.551,5.669-5.669,5.669H23.194c-3.118,0-5.669-2.551-5.669-5.669
			V23.057c0-3.118,2.551-5.669,5.669-5.669h77.528c3.118,0,5.669,2.551,5.669,5.669V136.443z"/>
	</g>
	<g>
		<linearGradient id="SVGID_2_" gradientUnits="userSpaceOnUse" x1="120.2729" y1="-5.8857" x2="197.2142" y2="168.5634">
			<stop  offset="0.0056" style="stop-color:#BA6900"/>
			<stop  offset="0.0558" style="stop-color:#C17511"/>
			<stop  offset="0.155" style="stop-color:#D4933E"/>
			<stop  offset="0.2445" style="stop-color:#E7B26B"/>
			<stop  offset="0.3453" style="stop-color:#D59744"/>
			<stop  offset="0.4857" style="stop-color:#BE7513"/>
			<stop  offset="0.5553" style="stop-color:#B56800"/>
			<stop  offset="0.5924" style="stop-color:#B96D08"/>
			<stop  offset="0.6497" style="stop-color:#C37C1E"/>
			<stop  offset="0.7196" style="stop-color:#D39541"/>
			<stop  offset="0.7895" style="stop-color:#E7B26B"/>
			<stop  offset="0.9704" style="stop-color:#B46C0F"/>
			<stop  offset="1" style="stop-color:#AB6000"/>
		</linearGradient>
		<path style="fill:url(#SVGID_2_);" d="M202.476,136.443c0,3.118-2.551,5.669-5.669,5.669h-77.527
			c-3.118,0-5.669-2.551-5.669-5.669V23.057c0-3.118,2.551-5.669,5.669-5.669h77.527c3.118,0,5.669,2.551,5.669,5.669V136.443z"/>
	</g>
	<g>
		<linearGradient id="SVGID_3_" gradientUnits="userSpaceOnUse" x1="202.6504" y1="-34.9199" x2="279.5916" y2="139.5293">
			<stop  offset="0.0056" style="stop-color:#BA6900"/>
			<stop  offset="0.0558" style="stop-color:#C17511"/>
			<stop  offset="0.155" style="stop-color:#D4933E"/>
			<stop  offset="0.2445" style="stop-color:#E7B26B"/>
			<stop  offset="0.3453" style="stop-color:#D59744"/>
			<stop  offset="0.4857" style="stop-color:#BE7513"/>
			<stop  offset="0.5553" style="stop-color:#B56800"/>
			<stop  offset="0.5924" style="stop-color:#B96D08"/>
			<stop  offset="0.6497" style="stop-color:#C37C1E"/>
			<stop  offset="0.7196" style="stop-color:#D39541"/>
			<stop  offset="0.7895" style="stop-color:#E7B26B"/>
			<stop  offset="0.9704" style="stop-color:#B46C0F"/>
			<stop  offset="1" style="stop-color:#AB6000"/>
		</linearGradient>
		<path style="fill:url(#SVGID_3_);" d="M297.659,136.443c0,3.118-2.551,5.669-5.669,5.669h-77.527
			c-3.118,0-5.669-2.551-5.669-5.669V23.057c0-3.118,2.551-5.669,5.669-5.669h77.527c3.118,0,5.669,2.551,5.669,5.669V136.443z"/>
	</g>
</g>
<g id="Layer_4">
</g>
<g id="Layer_2">
</g>
<g id="Layer_3">
</g>
</svg>
