<?xml version="1.0" encoding="utf-8"?>
<!-- Generator: Adobe Illustrator 16.0.0, SVG Export Plug-In . SVG Version: 6.00 Build 0)  -->
<!DOCTYPE svg PUBLIC "-//W3C//DTD SVG 1.1//EN" "http://www.w3.org/Graphics/SVG/1.1/DTD/svg11.dtd">
<svg version="1.1" id="Layer_1" xmlns="http://www.w3.org/2000/svg" xmlns:xlink="http://www.w3.org/1999/xlink" x="0px" y="0px"
	 width="437.5px" height="159.5px" viewBox="0 0 437.5 159.5" enable-background="new 0 0 437.5 159.5" xml:space="preserve">
<g>
	<path fill="none" stroke="#373737" stroke-width="8.5039" stroke-miterlimit="10" d="M406.328,142.328
		c0,5.457-4.465,9.921-9.921,9.921H17.005c-5.457,0-9.921-4.464-9.921-9.921V17.172c0-5.457,4.464-9.921,9.921-9.921h379.402
		c5.456,0,9.921,4.464,9.921,9.921V142.328z"/>
</g>
<g>
	<path fill="#373737" d="M434.416,57.474c0-1.559-1.275-2.834-2.835-2.834h-10.676c-1.56,0-2.835-1.275-2.835-2.834V31.474
		c0-1.559-1.275-2.834-2.835-2.834h-7.454c-1.56,0-2.835,1.275-2.835,2.834v96.553c0,1.559,1.275,2.834,2.835,2.834h7.454
		c1.56,0,2.835-1.275,2.835-2.834v-20.331c0-1.559,1.275-2.834,2.835-2.834h10.676c1.56,0,2.835-1.275,2.835-2.834V57.474z"/>
</g>
<g>
	<linearGradient id="SVGID_1_" gradientUnits="userSpaceOnUse" x1="36.2866" y1="21.5459" x2="115.7921" y2="201.8089">
		<stop  offset="0.0056" style="stop-color:#BA7924"/>
		<stop  offset="0.0639" style="stop-color:#C28330"/>
		<stop  offset="0.1791" style="stop-color:#D89F52"/>
		<stop  offset="0.2445" style="stop-color:#E7B26B"/>
		<stop  offset="0.2751" style="stop-color:#E1AB63"/>
		<stop  offset="0.4625" style="stop-color:#C1873A"/>
		<stop  offset="0.5553" style="stop-color:#B57B2D"/>
		<stop  offset="0.602" style="stop-color:#BA8032"/>
		<stop  offset="0.6743" style="stop-color:#C78E42"/>
		<stop  offset="0.7626" style="stop-color:#DFA860"/>
		<stop  offset="0.7895" style="stop-color:#E7B26B"/>
		<stop  offset="1" style="stop-color:#AB7126"/>
	</linearGradient>
	<path fill="url(#SVGID_1_)" d="M106.391,139.108c0,3.118-2.551,5.669-5.669,5.669H23.194c-3.118,0-5.669-2.551-5.669-5.669V20.392
		c0-3.118,2.551-5.669,5.669-5.669h77.528c3.118,0,5.669,2.551,5.669,5.669V139.108z"/>
</g>
<g>
	<linearGradient id="SVGID_2_" gradientUnits="userSpaceOnUse" x1="119.0137" y1="-8.7402" x2="198.5197" y2="171.5241">
		<stop  offset="0.0056" style="stop-color:#BA7924"/>
		<stop  offset="0.0639" style="stop-color:#C28330"/>
		<stop  offset="0.1791" style="stop-color:#D89F52"/>
		<stop  offset="0.2445" style="stop-color:#E7B26B"/>
		<stop  offset="0.2751" style="stop-color:#E1AB63"/>
		<stop  offset="0.4625" style="stop-color:#C1873A"/>
		<stop  offset="0.5553" style="stop-color:#B57B2D"/>
		<stop  offset="0.602" style="stop-color:#BA8032"/>
		<stop  offset="0.6743" style="stop-color:#C78E42"/>
		<stop  offset="0.7626" style="stop-color:#DFA860"/>
		<stop  offset="0.7895" style="stop-color:#E7B26B"/>
		<stop  offset="1" style="stop-color:#AB7126"/>
	</linearGradient>
	<path fill="url(#SVGID_2_)" d="M202.476,139.108c0,3.118-2.551,5.669-5.669,5.669h-77.527c-3.118,0-5.669-2.551-5.669-5.669V20.392
		c0-3.118,2.551-5.669,5.669-5.669h77.527c3.118,0,5.669,2.551,5.669,5.669V139.108z"/>
</g>
<g>
	<linearGradient id="SVGID_3_" gradientUnits="userSpaceOnUse" x1="200.9648" y1="-38.7432" x2="280.4709" y2="141.5212">
		<stop  offset="0.0056" style="stop-color:#BA7924"/>
		<stop  offset="0.0639" style="stop-color:#C28330"/>
		<stop  offset="0.1791" style="stop-color:#D89F52"/>
		<stop  offset="0.2445" style="stop-color:#E7B26B"/>
		<stop  offset="0.2751" style="stop-color:#E1AB63"/>
		<stop  offset="0.4625" style="stop-color:#C1873A"/>
		<stop  offset="0.5553" style="stop-color:#B57B2D"/>
		<stop  offset="0.602" style="stop-color:#BA8032"/>
		<stop  offset="0.6743" style="stop-color:#C78E42"/>
		<stop  offset="0.7626" style="stop-color:#DFA860"/>
		<stop  offset="0.7895" style="stop-color:#E7B26B"/>
		<stop  offset="1" style="stop-color:#AB7126"/>
	</linearGradient>
	<path fill="url(#SVGID_3_)" d="M297.659,139.108c0,3.118-2.551,5.669-5.669,5.669h-77.527c-3.118,0-5.669-2.551-5.669-5.669V20.392
		c0-3.118,2.551-5.669,5.669-5.669h77.527c3.118,0,5.669,2.551,5.669,5.669V139.108z"/>
</g>
</svg>
