<?xml version="1.0" encoding="utf-8"?>
<!-- Generator: Adobe Illustrator 16.0.0, SVG Export Plug-In . SVG Version: 6.00 Build 0)  -->
<!DOCTYPE svg PUBLIC "-//W3C//DTD SVG 1.1//EN" "http://www.w3.org/Graphics/SVG/1.1/DTD/svg11.dtd">
<svg version="1.1" id="Layer_1" xmlns="http://www.w3.org/2000/svg" xmlns:xlink="http://www.w3.org/1999/xlink" x="0px" y="0px"
	 width="437.5px" height="159.5px" viewBox="0 0 437.5 159.5" enable-background="new 0 0 437.5 159.5" xml:space="preserve">
<g>
	<path d="M404.717,142.329c0,5.457-4.465,9.921-9.921,9.921H15.394c-5.457,0-9.921-4.465-9.921-9.921V17.171
		c0-5.457,4.464-9.921,9.921-9.921h379.402c5.456,0,9.921,4.465,9.921,9.921V142.329z"/>
	<path fill="none" stroke="#000000" stroke-width="4.252" stroke-miterlimit="10" d="M404.717,142.329
		c0,5.457-4.465,9.921-9.921,9.921H15.394c-5.457,0-9.921-4.465-9.921-9.921V17.171c0-5.457,4.464-9.921,9.921-9.921h379.402
		c5.456,0,9.921,4.465,9.921,9.921V142.329z"/>
</g>
<g>
	<path d="M416.459,128.026c0,1.559-1.275,2.834-2.835,2.834h-7.454c-1.56,0-2.835-1.275-2.835-2.834V31.474
		c0-1.559,1.275-2.834,2.835-2.834h7.454c1.56,0,2.835,1.275,2.835,2.834V128.026z"/>
</g>
<g>
	<path d="M432.805,102.026c0,1.559-1.275,2.834-2.835,2.834h-15.513c-1.56,0-2.835-1.275-2.835-2.834V57.474
		c0-1.559,1.275-2.834,2.835-2.834h15.513c1.56,0,2.835,1.275,2.835,2.834V102.026z"/>
</g>
<g>
	<linearGradient id="SVGID_1_" gradientUnits="userSpaceOnUse" x1="47.0879" y1="48.3037" x2="116.8592" y2="206.4965">
		<stop  offset="0.0056" style="stop-color:#BB2375"/>
		<stop  offset="0.0507" style="stop-color:#BF397E"/>
		<stop  offset="0.1403" style="stop-color:#CB699B"/>
		<stop  offset="0.2445" style="stop-color:#DFA2C5"/>
		<stop  offset="0.3575" style="stop-color:#CC75A3"/>
		<stop  offset="0.4897" style="stop-color:#BB4382"/>
		<stop  offset="0.5553" style="stop-color:#B62E78"/>
		<stop  offset="0.5849" style="stop-color:#B8377C"/>
		<stop  offset="0.6306" style="stop-color:#BD4E88"/>
		<stop  offset="0.6867" style="stop-color:#C8719F"/>
		<stop  offset="0.7506" style="stop-color:#D99FC0"/>
		<stop  offset="0.7895" style="stop-color:#E5BCD7"/>
		<stop  offset="0.9155" style="stop-color:#BF6794"/>
		<stop  offset="1" style="stop-color:#AB256F"/>
	</linearGradient>
	<path fill="url(#SVGID_1_)" d="M105.391,139.108c0,3.118-2.551,5.669-5.669,5.669H22.194c-3.118,0-5.669-2.551-5.669-5.669V20.392
		c0-3.118,2.551-5.669,5.669-5.669h77.528c3.118,0,5.669,2.551,5.669,5.669V139.108z"/>
</g>
<g>
	<linearGradient id="SVGID_2_" gradientUnits="userSpaceOnUse" x1="127.9102" y1="13.6973" x2="197.6815" y2="171.89">
		<stop  offset="0.0056" style="stop-color:#BB2375"/>
		<stop  offset="0.0507" style="stop-color:#BF397E"/>
		<stop  offset="0.1403" style="stop-color:#CB699B"/>
		<stop  offset="0.2445" style="stop-color:#DFA2C5"/>
		<stop  offset="0.3575" style="stop-color:#CC75A3"/>
		<stop  offset="0.4897" style="stop-color:#BB4382"/>
		<stop  offset="0.5553" style="stop-color:#B62E78"/>
		<stop  offset="0.5849" style="stop-color:#B8377C"/>
		<stop  offset="0.6306" style="stop-color:#BD4E88"/>
		<stop  offset="0.6867" style="stop-color:#C8719F"/>
		<stop  offset="0.7506" style="stop-color:#D99FC0"/>
		<stop  offset="0.7895" style="stop-color:#E5BCD7"/>
		<stop  offset="0.9155" style="stop-color:#BF6794"/>
		<stop  offset="1" style="stop-color:#AB256F"/>
	</linearGradient>
	<path fill="url(#SVGID_2_)" d="M201.476,139.108c0,3.118-2.551,5.669-5.669,5.669h-77.527c-3.118,0-5.669-2.551-5.669-5.669V20.392
		c0-3.118,2.551-5.669,5.669-5.669h77.527c3.118,0,5.669,2.551,5.669,5.669V139.108z"/>
</g>
<g>
	<linearGradient id="SVGID_3_" gradientUnits="userSpaceOnUse" x1="207.9736" y1="-20.5825" x2="277.7454" y2="137.6113">
		<stop  offset="0.0056" style="stop-color:#BB2375"/>
		<stop  offset="0.0507" style="stop-color:#BF397E"/>
		<stop  offset="0.1403" style="stop-color:#CB699B"/>
		<stop  offset="0.2445" style="stop-color:#DFA2C5"/>
		<stop  offset="0.3575" style="stop-color:#CC75A3"/>
		<stop  offset="0.4897" style="stop-color:#BB4382"/>
		<stop  offset="0.5553" style="stop-color:#B62E78"/>
		<stop  offset="0.5849" style="stop-color:#B8377C"/>
		<stop  offset="0.6306" style="stop-color:#BD4E88"/>
		<stop  offset="0.6867" style="stop-color:#C8719F"/>
		<stop  offset="0.7506" style="stop-color:#D99FC0"/>
		<stop  offset="0.7895" style="stop-color:#E5BCD7"/>
		<stop  offset="0.9155" style="stop-color:#BF6794"/>
		<stop  offset="1" style="stop-color:#AB256F"/>
	</linearGradient>
	<path fill="url(#SVGID_3_)" d="M296.659,139.108c0,3.118-2.551,5.669-5.669,5.669h-77.527c-3.118,0-5.669-2.551-5.669-5.669V20.392
		c0-3.118,2.551-5.669,5.669-5.669h77.527c3.118,0,5.669,2.551,5.669,5.669V139.108z"/>
</g>
<g>
	<linearGradient id="SVGID_4_" gradientUnits="userSpaceOnUse" x1="288.7969" y1="-55.187" x2="358.5682" y2="103.0058">
		<stop  offset="0.0056" style="stop-color:#BB2375"/>
		<stop  offset="0.0507" style="stop-color:#BF397E"/>
		<stop  offset="0.1403" style="stop-color:#CB699B"/>
		<stop  offset="0.2445" style="stop-color:#DFA2C5"/>
		<stop  offset="0.3575" style="stop-color:#CC75A3"/>
		<stop  offset="0.4897" style="stop-color:#BB4382"/>
		<stop  offset="0.5553" style="stop-color:#B62E78"/>
		<stop  offset="0.5849" style="stop-color:#B8377C"/>
		<stop  offset="0.6306" style="stop-color:#BD4E88"/>
		<stop  offset="0.6867" style="stop-color:#C8719F"/>
		<stop  offset="0.7506" style="stop-color:#D99FC0"/>
		<stop  offset="0.7895" style="stop-color:#E5BCD7"/>
		<stop  offset="0.9155" style="stop-color:#BF6794"/>
		<stop  offset="1" style="stop-color:#AB256F"/>
	</linearGradient>
	<path fill="url(#SVGID_4_)" d="M392.744,139.108c0,3.118-2.551,5.669-5.669,5.669h-77.528c-3.118,0-5.669-2.551-5.669-5.669V20.392
		c0-3.118,2.551-5.669,5.669-5.669h77.528c3.118,0,5.669,2.551,5.669,5.669V139.108z"/>
</g>
</svg>
