<?xml version="1.0" encoding="utf-8"?>
<!-- Generator: Adobe Illustrator 16.0.0, SVG Export Plug-In . SVG Version: 6.00 Build 0)  -->
<!DOCTYPE svg PUBLIC "-//W3C//DTD SVG 1.1//EN" "http://www.w3.org/Graphics/SVG/1.1/DTD/svg11.dtd">
<svg version="1.1" xmlns="http://www.w3.org/2000/svg" xmlns:xlink="http://www.w3.org/1999/xlink" x="0px" y="0px" width="437.5px"
	 height="159.5px" viewBox="0 0 437.5 159.5" style="enable-background:new 0 0 437.5 159.5;" xml:space="preserve">
<g id="Layer_1">
	<g>
		<path style="fill:none;stroke:#282828;stroke-width:7.0866;stroke-miterlimit:10;" d="M406.328,142.329
			c0,5.457-4.465,9.921-9.921,9.921H17.005c-5.457,0-9.921-4.464-9.921-9.921V17.171c0-5.457,4.464-9.921,9.921-9.921h379.402
			c5.456,0,9.921,4.464,9.921,9.921V142.329z"/>
	</g>
	<g>
		<path style="fill:#282828;" d="M434.416,57.474c0-1.559-1.275-2.834-2.835-2.834h-10.676c-1.56,0-2.835-1.275-2.835-2.834V31.474
			c0-1.559-1.275-2.834-2.835-2.834h-7.454c-1.56,0-2.835,1.275-2.835,2.834v96.553c0,1.559,1.275,2.834,2.835,2.834h7.454
			c1.56,0,2.835-1.275,2.835-2.834v-20.331c0-1.559,1.275-2.834,2.835-2.834h10.676c1.56,0,2.835-1.275,2.835-2.834V57.474z"/>
	</g>
	<g>
		<linearGradient id="SVGID_1_" gradientUnits="userSpaceOnUse" x1="48.9858" y1="49.3179" x2="116.5069" y2="202.4085">
			<stop  offset="0.0054" style="stop-color:#FA1BBB"/>
			<stop  offset="0.0681" style="stop-color:#FA39C4"/>
			<stop  offset="0.1809" style="stop-color:#FA6AD2"/>
			<stop  offset="0.2368" style="stop-color:#FA7DD7"/>
			<stop  offset="0.2974" style="stop-color:#FA6CD2"/>
			<stop  offset="0.4172" style="stop-color:#FA3FC5"/>
			<stop  offset="0.5045" style="stop-color:#FA1BBB"/>
			<stop  offset="0.7332" style="stop-color:#FA77D5"/>
			<stop  offset="0.7488" style="stop-color:#FA7DD7"/>
			<stop  offset="0.7912" style="stop-color:#FA75D5"/>
			<stop  offset="0.8566" style="stop-color:#FA5FCF"/>
			<stop  offset="0.9364" style="stop-color:#FA3CC4"/>
			<stop  offset="1" style="stop-color:#FA1BBB"/>
		</linearGradient>
		<path style="fill:url(#SVGID_1_);" d="M106.842,136.443c0,3.118-2.551,5.669-5.669,5.669H23.645c-3.118,0-5.669-2.551-5.669-5.669
			V23.057c0-3.118,2.551-5.669,5.669-5.669h77.528c3.118,0,5.669,2.551,5.669,5.669V136.443z"/>
	</g>
	<g>
		<linearGradient id="SVGID_2_" gradientUnits="userSpaceOnUse" x1="130.3003" y1="15.8281" x2="197.8213" y2="168.9188">
			<stop  offset="0.0054" style="stop-color:#FA1BBB"/>
			<stop  offset="0.0681" style="stop-color:#FA39C4"/>
			<stop  offset="0.1809" style="stop-color:#FA6AD2"/>
			<stop  offset="0.2368" style="stop-color:#FA7DD7"/>
			<stop  offset="0.2974" style="stop-color:#FA6CD2"/>
			<stop  offset="0.4172" style="stop-color:#FA3FC5"/>
			<stop  offset="0.5045" style="stop-color:#FA1BBB"/>
			<stop  offset="0.7332" style="stop-color:#FA77D5"/>
			<stop  offset="0.7488" style="stop-color:#FA7DD7"/>
			<stop  offset="0.7912" style="stop-color:#FA75D5"/>
			<stop  offset="0.8566" style="stop-color:#FA5FCF"/>
			<stop  offset="0.9364" style="stop-color:#FA3CC4"/>
			<stop  offset="1" style="stop-color:#FA1BBB"/>
		</linearGradient>
		<path style="fill:url(#SVGID_2_);" d="M202.926,136.443c0,3.118-2.551,5.669-5.669,5.669h-77.527
			c-3.118,0-5.669-2.551-5.669-5.669V23.057c0-3.118,2.551-5.669,5.669-5.669h77.527c3.118,0,5.669,2.551,5.669,5.669V136.443z"/>
	</g>
	<g>
		<linearGradient id="SVGID_3_" gradientUnits="userSpaceOnUse" x1="210.8521" y1="-17.3467" x2="278.3737" y2="135.7453">
			<stop  offset="0.0054" style="stop-color:#FA1BBB"/>
			<stop  offset="0.0681" style="stop-color:#FA39C4"/>
			<stop  offset="0.1809" style="stop-color:#FA6AD2"/>
			<stop  offset="0.2368" style="stop-color:#FA7DD7"/>
			<stop  offset="0.2974" style="stop-color:#FA6CD2"/>
			<stop  offset="0.4172" style="stop-color:#FA3FC5"/>
			<stop  offset="0.5045" style="stop-color:#FA1BBB"/>
			<stop  offset="0.7332" style="stop-color:#FA77D5"/>
			<stop  offset="0.7488" style="stop-color:#FA7DD7"/>
			<stop  offset="0.7912" style="stop-color:#FA75D5"/>
			<stop  offset="0.8566" style="stop-color:#FA5FCF"/>
			<stop  offset="0.9364" style="stop-color:#FA3CC4"/>
			<stop  offset="1" style="stop-color:#FA1BBB"/>
		</linearGradient>
		<path style="fill:url(#SVGID_3_);" d="M298.11,136.443c0,3.118-2.551,5.669-5.669,5.669h-77.527c-3.118,0-5.669-2.551-5.669-5.669
			V23.057c0-3.118,2.551-5.669,5.669-5.669h77.527c3.118,0,5.669,2.551,5.669,5.669V136.443z"/>
	</g>
	<g>
		<linearGradient id="SVGID_4_" gradientUnits="userSpaceOnUse" x1="291.7158" y1="-50.835" x2="359.2368" y2="102.2557">
			<stop  offset="0.0054" style="stop-color:#FA1BBB"/>
			<stop  offset="0.0681" style="stop-color:#FA39C4"/>
			<stop  offset="0.1809" style="stop-color:#FA6AD2"/>
			<stop  offset="0.2368" style="stop-color:#FA7DD7"/>
			<stop  offset="0.2974" style="stop-color:#FA6CD2"/>
			<stop  offset="0.4172" style="stop-color:#FA3FC5"/>
			<stop  offset="0.5045" style="stop-color:#FA1BBB"/>
			<stop  offset="0.7332" style="stop-color:#FA77D5"/>
			<stop  offset="0.7488" style="stop-color:#FA7DD7"/>
			<stop  offset="0.7912" style="stop-color:#FA75D5"/>
			<stop  offset="0.8566" style="stop-color:#FA5FCF"/>
			<stop  offset="0.9364" style="stop-color:#FA3CC4"/>
			<stop  offset="1" style="stop-color:#FA1BBB"/>
		</linearGradient>
		<path style="fill:url(#SVGID_4_);" d="M393.744,136.443c0,3.118-2.551,5.669-5.669,5.669h-77.528
			c-3.118,0-5.669-2.551-5.669-5.669V23.057c0-3.118,2.551-5.669,5.669-5.669h77.528c3.118,0,5.669,2.551,5.669,5.669V136.443z"/>
	</g>
</g>
<g id="Layer_4">
</g>
<g id="Layer_2">
</g>
<g id="Layer_3">
</g>
</svg>
