<?xml version="1.0" encoding="utf-8"?>
<!-- Generator: Adobe Illustrator 16.0.0, SVG Export Plug-In . SVG Version: 6.00 Build 0)  -->
<!DOCTYPE svg PUBLIC "-//W3C//DTD SVG 1.1//EN" "http://www.w3.org/Graphics/SVG/1.1/DTD/svg11.dtd">
<svg version="1.1" xmlns="http://www.w3.org/2000/svg" xmlns:xlink="http://www.w3.org/1999/xlink" x="0px" y="0px" width="437.5px"
	 height="159.5px" viewBox="0 0 437.5 159.5" style="enable-background:new 0 0 437.5 159.5;" xml:space="preserve">
<g id="Layer_1">
	<g>
		<path style="fill:none;stroke:#E8E8E8;stroke-width:7.0866;stroke-miterlimit:10;" d="M406.328,142.329
			c0,5.457-4.465,9.921-9.921,9.921H17.005c-5.457,0-9.921-4.464-9.921-9.921V17.171c0-5.457,4.464-9.921,9.921-9.921h379.402
			c5.456,0,9.921,4.464,9.921,9.921V142.329z"/>
	</g>
	<g>
		<path style="fill:#E8E8E8;" d="M434.416,57.474c0-1.559-1.275-2.834-2.835-2.834h-10.676c-1.56,0-2.835-1.275-2.835-2.834V31.474
			c0-1.559-1.275-2.834-2.835-2.834h-7.454c-1.56,0-2.835,1.275-2.835,2.834v96.553c0,1.559,1.275,2.834,2.835,2.834h7.454
			c1.56,0,2.835-1.275,2.835-2.834v-20.331c0-1.559,1.275-2.834,2.835-2.834h10.676c1.56,0,2.835-1.275,2.835-2.834V57.474z"/>
	</g>
	<g>
		<linearGradient id="SVGID_1_" gradientUnits="userSpaceOnUse" x1="41.6924" y1="33.8022" x2="104.9497" y2="177.2259">
			<stop  offset="0.0056" style="stop-color:#3AA9DB"/>
			<stop  offset="0.0502" style="stop-color:#4BAFDC"/>
			<stop  offset="0.1388" style="stop-color:#78BDDD"/>
			<stop  offset="0.2445" style="stop-color:#B5D1DF"/>
			<stop  offset="0.3697" style="stop-color:#7DBFDD"/>
			<stop  offset="0.494" style="stop-color:#4CAFDC"/>
			<stop  offset="0.5553" style="stop-color:#39A9DB"/>
			<stop  offset="0.5887" style="stop-color:#41ACDB"/>
			<stop  offset="0.6403" style="stop-color:#57B3DC"/>
			<stop  offset="0.7037" style="stop-color:#7ABEDD"/>
			<stop  offset="0.7759" style="stop-color:#ABCEDF"/>
			<stop  offset="0.7895" style="stop-color:#B5D1DF"/>
			<stop  offset="0.9462" style="stop-color:#5AB3DC"/>
			<stop  offset="1" style="stop-color:#39A9DB"/>
		</linearGradient>
		<path style="fill:url(#SVGID_1_);" d="M106.391,136.443c0,3.118-2.551,5.669-5.669,5.669H23.194c-3.118,0-5.669-2.551-5.669-5.669
			V23.057c0-3.118,2.551-5.669,5.669-5.669h77.528c3.118,0,5.669,2.551,5.669,5.669V136.443z"/>
	</g>
</g>
<g id="Layer_4">
</g>
<g id="Layer_2">
</g>
<g id="Layer_3">
</g>
</svg>
