<?xml version="1.0" encoding="utf-8"?>
<!-- Generator: Adobe Illustrator 15.1.0, SVG Export Plug-In . SVG Version: 6.00 Build 0)  -->
<!DOCTYPE svg PUBLIC "-//W3C//DTD SVG 1.1//EN" "http://www.w3.org/Graphics/SVG/1.1/DTD/svg11.dtd">
<svg version="1.1" id="Layer_1" xmlns="http://www.w3.org/2000/svg" xmlns:xlink="http://www.w3.org/1999/xlink" x="0px" y="0px"
	 width="100px" height="100px" viewBox="0 0 100 100" enable-background="new 0 0 100 100" xml:space="preserve">
<path fill-rule="evenodd" clip-rule="evenodd" fill="#1C1C1B" d="M81.01,0H18.751C8.395,0,0,8.395,0,18.75v61.634
	c0,10.357,8.395,18.751,18.751,18.751H81.01c10.355,0,18.751-8.394,18.751-18.751V18.75C99.761,8.395,91.365,0,81.01,0z
	 M25.855,82.495c-4.063,0-8.125,0-12.188,0c0-7.558,0-41.378,0-55.55c0.756-5.949,5.36-10.582,12.188-10.782
	C25.855,38.273,25.855,60.385,25.855,82.495z M62.654,70.307c4.063,0.546,9.141,0.078,13.594,0.233
	c6.556,0.713,9.395,5.139,9.845,11.955c-15.722,0.019-32.856,1.448-40.549-6.563c-1.074-1.27-2.246-2.442-3.516-3.516
	c-4.293-5.474-7.47-12.063-8.204-21.095c-0.148-0.866-0.146-5.381,0-6.094c0.753-9.05,4.534-17.008,9.61-21.563
	c9.35-8.39,24.039-7.992,42.658-7.5c-0.117,3.768-0.869,6.341-2.578,8.204c-5.143,5.603-14.42,2.544-22.97,4.219
	C42.055,32.207,42.379,69.137,62.654,70.307z"/>
</svg>
